<svg width="23" height="23" viewBox="0 0 18 18" fill="#ABB2BF" xmlns="http://www.w3.org/2000/svg">
<path d="M14.7319 3.2682C13.3794 1.90216 11.5832 1.06441 9.66741 0.906069C7.7516 0.747724 5.84226 1.2792 4.28379 2.40464C2.72533 3.53008 1.62033 5.17539 1.16813 7.04379C0.715919 8.9122 0.946266 10.8807 1.81762 12.5942L0.962277 16.7468C0.953402 16.7882 0.95315 16.8309 0.961539 16.8723C0.969927 16.9137 0.986774 16.953 1.01103 16.9876C1.04656 17.0402 1.09727 17.0806 1.1564 17.1036C1.21553 17.1266 1.28025 17.1309 1.34194 17.1161L5.41182 16.1515C7.12053 17.0008 9.07513 17.2163 10.9278 16.7597C12.7805 16.3032 14.4112 15.2041 15.5296 13.6581C16.648 12.1121 17.1817 10.2194 17.0356 8.31691C16.8895 6.41437 16.0732 4.62536 14.7319 3.2682ZM13.463 13.3964C12.5271 14.3296 11.3221 14.9456 10.0176 15.1576C8.71314 15.3696 7.37502 15.167 6.19182 14.5782L5.62455 14.2975L3.12944 14.8884L3.13682 14.8574L3.65387 12.346L3.37614 11.798C2.77158 10.6106 2.55832 9.26244 2.76689 7.94649C2.97547 6.63053 3.59519 5.41436 4.53728 4.47217C5.72102 3.28879 7.32631 2.62401 9.00012 2.62401C10.6739 2.62401 12.2792 3.28879 13.463 4.47217C13.473 4.48373 13.4839 4.49459 13.4955 4.50467C14.6645 5.6911 15.3172 7.2916 15.3111 8.95722C15.305 10.6228 14.6407 12.2185 13.463 13.3964Z" fill="#ABB2BF"/>
<path d="M13.2413 11.5541C12.9355 12.0357 12.4524 12.6251 11.8452 12.7714C10.7816 13.0284 9.14921 12.7802 7.11796 10.8864L7.09284 10.8642C5.30682 9.20819 4.84296 7.82989 4.95523 6.73671C5.01728 6.11626 5.53432 5.55489 5.97012 5.18853C6.03901 5.12973 6.12072 5.08786 6.20869 5.06628C6.29666 5.0447 6.38846 5.044 6.47675 5.06424C6.56504 5.08448 6.64737 5.1251 6.71715 5.18285C6.78694 5.2406 6.84224 5.31388 6.87864 5.39683L7.53602 6.8741C7.57874 6.96988 7.59458 7.07549 7.58182 7.1796C7.56907 7.2837 7.52822 7.38236 7.46364 7.46501L7.13125 7.89637C7.05993 7.98544 7.0169 8.09381 7.00768 8.20754C6.99847 8.32128 7.0235 8.43516 7.07955 8.53455C7.26568 8.86103 7.71182 9.34114 8.20671 9.7858C8.76216 10.2881 9.37818 10.7475 9.76818 10.9041C9.87254 10.9467 9.98727 10.9571 10.0976 10.934C10.2079 10.9108 10.3088 10.8551 10.3872 10.7741L10.7727 10.3856C10.8471 10.3122 10.9396 10.2599 11.0409 10.2339C11.1421 10.208 11.2483 10.2093 11.3489 10.2378L12.9103 10.681C12.9965 10.7075 13.0754 10.7532 13.1412 10.8148C13.2069 10.8765 13.2577 10.9523 13.2896 11.0365C13.3215 11.1208 13.3338 11.2112 13.3254 11.3009C13.317 11.3906 13.2882 11.4772 13.2413 11.5541Z" fill="#ABB2BF"/>
</svg>
